<svg class="absolute bottom-0 left-0 h-[14vw]" xmlns="http://www.w3.org/2000/svg" viewBox="0 0 497 194" fill="currentColor"><path d="M92.75 193H112.25V-3.69549e-06H92.75V85.25H19.5V-3.69549e-06H1.57952e-06V193H19.5V90H92.75V193ZM173.768 194C202.518 194 215.518 162.75 220.518 128.25H217.518C212.268 159.5 199.268 180.25 179.018 180.25C156.518 180.25 144.018 155.5 144.018 114.25C144.018 108.5 144.268 103.25 144.768 98.25H218.768C215.518 66 201.018 48 176.518 48C148.018 48 126.768 79.5 126.768 124.75C126.768 166.25 144.768 194 173.768 194ZM145.268 93.75C148.768 67.25 159.268 52.5 175.018 52.5C190.268 52.5 199.268 69.25 201.018 93.75H145.268ZM264.596 194C286.596 194 301.596 173.25 307.096 144.5L307.846 193H325.346V49.75H306.846V122.5C306.846 155 294.596 181.75 271.596 181.75C255.096 181.75 247.096 171 247.096 144.75V49.75H228.596V146C228.596 176.5 239.596 194 264.596 194ZM345.402 193H363.902V126.75C363.902 91.75 375.902 65 403.402 65C406.402 65 409.152 65.5 412.652 66.25V48C391.652 48 371.902 64.25 363.902 103V49.75H345.402V193ZM449.637 194C478.387 194 491.387 162.75 496.387 128.25H493.387C488.137 159.5 475.137 180.25 454.887 180.25C432.387 180.25 419.887 155.5 419.887 114.25C419.887 108.5 420.137 103.25 420.637 98.25H494.637C491.387 66 476.887 48 452.387 48C423.887 48 402.637 79.5 402.637 124.75C402.637 166.25 420.637 194 449.637 194ZM421.137 93.75C424.637 67.25 435.137 52.5 450.887 52.5C466.137 52.5 475.137 69.25 476.887 93.75H421.137Z" fill="currentColor"/></svg>